<svg width="36" height="24" fill="none" xmlns="http://www.w3.org/2000/svg"><path fill-rule="evenodd" clip-rule="evenodd" d="M17 4h16.902c.73 0 .994.076 1.26.219.267.142.477.351.62.618.142.267.218.531.218 1.26v15.805c0 .73-.076.994-.219 1.26a1.487 1.487 0 01-.618.62c-.267.142-.531.218-1.26.218H17V4z" fill="#A1C4AA"/><path d="M17 19a5 5 0 100-10 5 5 0 000 10z" fill="#E2E9DB"/><mask id="a" fill="#fff"><path fill-rule="evenodd" clip-rule="evenodd" d="M17 7h12c.21 2.075 1.834 4 4 4v6.304c-2.021 0-3.603 1.232-4 3.696H17"/></mask><path d="M29 7l.995-.1A1 1 0 0029 6v1zm4 4h1a1 1 0 00-1-1v1zm0 6.304v1a1 1 0 001-1h-1zM29 21v1a1 1 0 00.987-.84L29 21zM17 8h12V6H17v2zm11.005-.9C28.252 9.545 30.19 12 33 12v-2c-1.522 0-2.833-1.394-3.005-3.1l-1.99.2zM32 11v6.304h2V11h-2zm1 5.304c-1.219 0-2.366.375-3.27 1.174-.904.798-1.49 1.949-1.717 3.363l1.974.318c.17-1.05.574-1.747 1.066-2.182.49-.433 1.145-.673 1.947-.673v-2zM29 20H17v2h12v-2z" fill="#E2E9DB" mask="url(#a)"/><path opacity=".3" fill-rule="evenodd" clip-rule="evenodd" d="M20 4l2 20h-5V4h3z" fill="#000"/><path d="M33 8.5a1.5 1.5 0 100-3 1.5 1.5 0 000 3z" stroke="#E2E9DB"/><path fill-rule="evenodd" clip-rule="evenodd" d="M15 19a4 4 0 000-8" fill="#fff"/><path d="M2.098 0h16.62c.446 0 .608.046.77.134a.906.906 0 01.378.378c.088.163.134.324.134.77V21H2.098c-.73 0-.994-.076-1.26-.219a1.487 1.487 0 01-.62-.618C.077 19.896 0 19.632 0 18.903V2.097c0-.73.076-.994.219-1.26C.36.57.57.36.837.217 1.104.077 1.368 0 2.097 0z" fill="#BFE0C4"/><path d="M15 11a5 5 0 005 5V6a5 5 0 00-5 5z" fill="#fff"/><mask id="b" fill="#fff"><path fill-rule="evenodd" clip-rule="evenodd" d="M20 3H7c-.21 2.066-1.834 4.052-4 4.052v7.27c2.021 0 3.76 1.225 4.157 3.678H20"/></mask><path d="M7 3l-.995-.101A1 1 0 017 2v1zM3 7.052H2a1 1 0 011-1v1zm0 7.27v1a1 1 0 01-1-1h1zM7.157 18v1a1 1 0 01-.987-.84l.987-.16zM20 4H7V2h13v2zM7.995 3.101C7.75 5.516 5.827 8.052 3 8.052v-2c1.506 0 2.831-1.437 3.005-3.153l1.99.202zM4 7.052v7.27H2v-7.27h2zm-1 6.27c1.214 0 2.388.369 3.327 1.15.944.785 1.585 1.932 1.817 3.368l-1.974.32c-.164-1.017-.592-1.71-1.122-2.15-.535-.446-1.24-.689-2.048-.689v-2zM7.157 17H20v2H7.157v-2z" fill="#fff" mask="url(#b)"/><path d="M3 4.5a1.5 1.5 0 100-3 1.5 1.5 0 000 3z" stroke="#fff"/></svg>