<?xml version="1.0" encoding="UTF-8"?>
<svg xmlns="http://www.w3.org/2000/svg" xmlns:xlink="http://www.w3.org/1999/xlink" width="36px" height="36px" viewBox="0 0 36 36" version="1.1">
<g id="surface1">
<path style=" stroke:none;fill-rule:nonzero;fill:rgb(21.176471%,23.137255%,21.960784%);fill-opacity:1;" d="M 33.71875 29.011719 L 2.242188 29.011719 C 1.113281 29.011719 0.199219 28.09375 0.199219 26.96875 L 0.199219 8.992188 C 0.199219 7.863281 1.113281 6.949219 2.242188 6.949219 L 33.71875 6.949219 C 34.847656 6.949219 35.761719 7.863281 35.761719 8.992188 L 35.761719 26.964844 C 35.761719 28.09375 34.847656 29.011719 33.71875 29.011719 Z M 33.71875 29.011719 "/>
<path style=" stroke:none;fill-rule:nonzero;fill:rgb(18.039216%,19.607843%,18.431373%);fill-opacity:1;" d="M 33.71875 6.949219 L 33.164062 6.949219 L 33.164062 16.25 C 33.164062 22.578125 28.03125 27.710938 21.703125 27.710938 L 0.34375 27.710938 C 0.640625 28.46875 1.375 29.011719 2.242188 29.011719 L 33.71875 29.011719 C 34.847656 29.011719 35.761719 28.09375 35.761719 26.96875 L 35.761719 8.992188 C 35.761719 7.863281 34.847656 6.949219 33.71875 6.949219 Z M 33.71875 6.949219 "/>
<path style=" stroke:none;fill-rule:nonzero;fill:rgb(91.764706%,64.705882%,0%);fill-opacity:1;" d="M 7.695312 14.136719 L 3.332031 14.136719 C 2.867188 14.136719 2.492188 13.761719 2.492188 13.296875 L 2.492188 10.949219 C 2.492188 10.484375 2.867188 10.109375 3.332031 10.109375 L 7.695312 10.109375 C 8.160156 10.109375 8.535156 10.484375 8.535156 10.949219 L 8.535156 13.296875 C 8.535156 13.761719 8.160156 14.136719 7.695312 14.136719 Z M 7.695312 14.136719 "/>
<path style=" stroke:none;fill-rule:nonzero;fill:rgb(32.941176%,36.078431%,33.72549%);fill-opacity:1;" d="M 8.054688 18.421875 L 2.972656 18.421875 C 2.726562 18.421875 2.53125 18.222656 2.53125 17.980469 C 2.53125 17.734375 2.726562 17.539062 2.972656 17.539062 L 8.054688 17.539062 C 8.300781 17.539062 8.496094 17.734375 8.496094 17.980469 C 8.496094 18.222656 8.300781 18.421875 8.054688 18.421875 Z M 8.054688 18.421875 "/>
<path style=" stroke:none;fill-rule:nonzero;fill:rgb(32.941176%,36.078431%,33.72549%);fill-opacity:1;" d="M 15.484375 18.421875 L 10.398438 18.421875 C 10.15625 18.421875 9.957031 18.222656 9.957031 17.980469 C 9.957031 17.734375 10.15625 17.539062 10.398438 17.539062 L 15.484375 17.539062 C 15.726562 17.539062 15.925781 17.734375 15.925781 17.980469 C 15.925781 18.222656 15.726562 18.421875 15.484375 18.421875 Z M 15.484375 18.421875 "/>
<path style=" stroke:none;fill-rule:nonzero;fill:rgb(32.941176%,36.078431%,33.72549%);fill-opacity:1;" d="M 22.914062 18.421875 L 17.828125 18.421875 C 17.582031 18.421875 17.386719 18.222656 17.386719 17.980469 C 17.386719 17.734375 17.582031 17.539062 17.828125 17.539062 L 22.914062 17.539062 C 23.15625 17.539062 23.355469 17.734375 23.355469 17.980469 C 23.355469 18.222656 23.15625 18.421875 22.914062 18.421875 Z M 22.914062 18.421875 "/>
<path style=" stroke:none;fill-rule:nonzero;fill:rgb(32.941176%,36.078431%,33.72549%);fill-opacity:1;" d="M 30.339844 18.421875 L 25.257812 18.421875 C 25.011719 18.421875 24.816406 18.222656 24.816406 17.980469 C 24.816406 17.734375 25.011719 17.539062 25.257812 17.539062 L 30.339844 17.539062 C 30.585938 17.539062 30.78125 17.734375 30.78125 17.980469 C 30.78125 18.222656 30.585938 18.421875 30.339844 18.421875 Z M 30.339844 18.421875 "/>
<path style=" stroke:none;fill-rule:nonzero;fill:rgb(32.941176%,36.078431%,33.72549%);fill-opacity:1;" d="M 12.46875 25.921875 L 2.972656 25.921875 C 2.726562 25.921875 2.53125 25.726562 2.53125 25.480469 C 2.53125 25.238281 2.726562 25.039062 2.972656 25.039062 L 12.46875 25.039062 C 12.710938 25.039062 12.910156 25.238281 12.910156 25.480469 C 12.910156 25.726562 12.710938 25.921875 12.46875 25.921875 Z M 12.46875 25.921875 "/>
<path style=" stroke:none;fill-rule:nonzero;fill:rgb(32.941176%,36.078431%,33.72549%);fill-opacity:1;" d="M 12.46875 23.273438 L 9.148438 23.273438 C 8.90625 23.273438 8.707031 23.078125 8.707031 22.832031 C 8.707031 22.589844 8.90625 22.390625 9.148438 22.390625 L 12.46875 22.390625 C 12.710938 22.390625 12.910156 22.589844 12.910156 22.832031 C 12.910156 23.078125 12.710938 23.273438 12.46875 23.273438 Z M 12.46875 23.273438 "/>
<path style=" stroke:none;fill-rule:nonzero;fill:rgb(32.941176%,36.078431%,33.72549%);fill-opacity:1;" d="M 29.304688 22.113281 C 28.679688 22.113281 28.128906 22.402344 27.761719 22.847656 C 27.390625 22.402344 26.839844 22.113281 26.214844 22.113281 C 25.105469 22.113281 24.203125 23.015625 24.203125 24.125 C 24.203125 25.238281 25.105469 26.140625 26.214844 26.140625 C 26.839844 26.140625 27.390625 25.847656 27.761719 25.402344 C 28.128906 25.847656 28.679688 26.140625 29.304688 26.140625 C 30.417969 26.140625 31.316406 25.238281 31.316406 24.125 C 31.316406 23.011719 30.417969 22.113281 29.304688 22.113281 Z M 29.304688 22.113281 "/>
<path style=" stroke:none;fill-rule:nonzero;fill:rgb(28.627451%,30.980392%,29.019608%);fill-opacity:1;" d="M 28.121094 25.746094 C 28.453125 25.988281 28.859375 26.140625 29.304688 26.140625 C 30.417969 26.140625 31.316406 25.238281 31.316406 24.125 C 31.316406 23.703125 31.1875 23.316406 30.96875 22.992188 C 30.1875 24.066406 29.222656 25 28.121094 25.746094 Z M 28.121094 25.746094 "/>
</g>
</svg>
