<?xml version="1.0" encoding="UTF-8"?>
<!DOCTYPE svg PUBLIC "-//W3C//DTD SVG 1.1//EN" "http://www.w3.org/Graphics/SVG/1.1/DTD/svg11.dtd">
<svg xmlns="http://www.w3.org/2000/svg" version="1.1" width="512px" height="512px" style="shape-rendering:geometricPrecision; text-rendering:geometricPrecision; image-rendering:optimizeQuality; fill-rule:evenodd; clip-rule:evenodd" xmlns:xlink="http://www.w3.org/1999/xlink">
<g><path style="opacity:0.988" fill="#fbbd2b" d="M 108.5,63.5 C 108.5,63.8333 108.5,64.1667 108.5,64.5C 107.508,71.6476 107.175,78.9809 107.5,86.5C 97.1667,86.5 86.8333,86.5 76.5,86.5C 76.3335,74.1622 76.5001,61.8288 77,49.5C 81.4731,40.5178 88.6397,37.3511 98.5,40C 107.134,45.3592 110.467,53.1925 108.5,63.5 Z"/></g>
<g><path style="opacity:0.99" fill="#595a59" d="M 108.5,63.5 C 129.833,63.5 151.167,63.5 172.5,63.5C 172.5,85.5 172.5,107.5 172.5,129.5C 151.167,129.5 129.833,129.5 108.5,129.5C 108.5,107.833 108.5,86.1667 108.5,64.5C 108.5,64.1667 108.5,63.8333 108.5,63.5 Z"/></g>
<g><path style="opacity:0.99" fill="#deecf0" d="M 173.5,63.5 C 195.167,63.5 216.833,63.5 238.5,63.5C 238.5,85.5 238.5,107.5 238.5,129.5C 216.833,129.5 195.167,129.5 173.5,129.5C 173.5,107.5 173.5,85.5 173.5,63.5 Z"/></g>
<g><path style="opacity:0.99" fill="#595959" d="M 238.5,63.5 C 260.167,63.5 281.833,63.5 303.5,63.5C 303.5,63.8333 303.5,64.1667 303.5,64.5C 292.833,64.5 282.167,64.5 271.5,64.5C 271.5,86.1667 271.5,107.833 271.5,129.5C 260.5,129.5 249.5,129.5 238.5,129.5C 238.5,107.5 238.5,85.5 238.5,63.5 Z"/></g>
<g><path style="opacity:0.99" fill="#c6e1e7" d="M 304.5,63.5 C 325.833,63.5 347.167,63.5 368.5,63.5C 368.5,85.5 368.5,107.5 368.5,129.5C 347.167,129.5 325.833,129.5 304.5,129.5C 304.5,107.5 304.5,85.5 304.5,63.5 Z"/></g>
<g><path style="opacity:1" fill="#434443" d="M 303.5,64.5 C 303.5,86.1667 303.5,107.833 303.5,129.5C 292.833,129.5 282.167,129.5 271.5,129.5C 271.5,107.833 271.5,86.1667 271.5,64.5C 282.167,64.5 292.833,64.5 303.5,64.5 Z"/></g>
<g><path style="opacity:1" fill="#444444" d="M 369.5,63.5 C 391.167,63.5 412.833,63.5 434.5,63.5C 434.5,85.5 434.5,107.5 434.5,129.5C 412.833,129.5 391.167,129.5 369.5,129.5C 369.5,107.5 369.5,85.5 369.5,63.5 Z"/></g>
<g><path style="opacity:1" fill="#ddecf0" d="M 76.5,87.5 C 86.8333,87.5 97.1667,87.5 107.5,87.5C 107.5,93.8333 107.5,100.167 107.5,106.5C 97.1667,106.5 86.8333,106.5 76.5,106.5C 76.5,100.167 76.5,93.8333 76.5,87.5 Z"/></g>
<g><path style="opacity:0.855" fill="#c5ae73" d="M 108.5,64.5 C 108.5,86.1667 108.5,107.833 108.5,129.5C 108.5,151.167 108.5,172.833 108.5,194.5C 108.5,202.167 108.5,209.833 108.5,217.5C 108.167,217.5 107.833,217.5 107.5,217.5C 107.5,180.5 107.5,143.5 107.5,106.5C 107.5,100.167 107.5,93.8333 107.5,87.5C 97.1667,87.5 86.8333,87.5 76.5,87.5C 76.5,87.1667 76.5,86.8333 76.5,86.5C 86.8333,86.5 97.1667,86.5 107.5,86.5C 107.175,78.9809 107.508,71.6476 108.5,64.5 Z"/></g>
<g><path style="opacity:1" fill="#fabe2c" d="M 76.5,106.5 C 86.8333,106.5 97.1667,106.5 107.5,106.5C 107.5,143.5 107.5,180.5 107.5,217.5C 97.1667,217.5 86.8333,217.5 76.5,217.5C 76.5,180.5 76.5,143.5 76.5,106.5 Z"/></g>
<g><path style="opacity:1" fill="#ddecf0" d="M 108.5,129.5 C 129.833,129.5 151.167,129.5 172.5,129.5C 172.5,151.167 172.5,172.833 172.5,194.5C 151.167,194.5 129.833,194.5 108.5,194.5C 108.5,172.833 108.5,151.167 108.5,129.5 Z"/></g>
<g><path style="opacity:1" fill="#595a59" d="M 173.5,129.5 C 195.167,129.5 216.833,129.5 238.5,129.5C 238.5,151.167 238.5,172.833 238.5,194.5C 216.833,194.5 195.167,194.5 173.5,194.5C 173.5,172.833 173.5,151.167 173.5,129.5 Z"/></g>
<g><path style="opacity:1" fill="#ddebf0" d="M 238.5,129.5 C 249.5,129.5 260.5,129.5 271.5,129.5C 271.5,151.167 271.5,172.833 271.5,194.5C 260.5,194.5 249.5,194.5 238.5,194.5C 238.5,172.833 238.5,151.167 238.5,129.5 Z"/></g>
<g><path style="opacity:1" fill="#c6e2e6" d="M 271.5,129.5 C 282.167,129.5 292.833,129.5 303.5,129.5C 303.5,151.167 303.5,172.833 303.5,194.5C 292.833,194.5 282.167,194.5 271.5,194.5C 271.5,172.833 271.5,151.167 271.5,129.5 Z"/></g>
<g><path style="opacity:1" fill="#434443" d="M 304.5,129.5 C 325.833,129.5 347.167,129.5 368.5,129.5C 368.5,151.167 368.5,172.833 368.5,194.5C 347.167,194.5 325.833,194.5 304.5,194.5C 304.5,172.833 304.5,151.167 304.5,129.5 Z"/></g>
<g><path style="opacity:1" fill="#c6e2e6" d="M 369.5,129.5 C 391.167,129.5 412.833,129.5 434.5,129.5C 434.5,151.167 434.5,172.833 434.5,194.5C 412.833,194.5 391.167,194.5 369.5,194.5C 369.5,172.833 369.5,151.167 369.5,129.5 Z"/></g>
<g><path style="opacity:0.995" fill="#5a5a5a" d="M 108.5,194.5 C 129.833,194.5 151.167,194.5 172.5,194.5C 172.5,216.5 172.5,238.5 172.5,260.5C 151.167,260.5 129.833,260.5 108.5,260.5C 108.5,246.167 108.5,231.833 108.5,217.5C 108.5,209.833 108.5,202.167 108.5,194.5 Z"/></g>
<g><path style="opacity:0.995" fill="#dae8ed" d="M 172.5,63.5 C 172.833,63.5 173.167,63.5 173.5,63.5C 173.5,85.5 173.5,107.5 173.5,129.5C 173.5,151.167 173.5,172.833 173.5,194.5C 195.167,194.5 216.833,194.5 238.5,194.5C 238.5,216.5 238.5,238.5 238.5,260.5C 216.5,260.5 194.5,260.5 172.5,260.5C 172.5,238.5 172.5,216.5 172.5,194.5C 172.5,172.833 172.5,151.167 172.5,129.5C 172.5,107.5 172.5,85.5 172.5,63.5 Z"/></g>
<g><path style="opacity:0.995" fill="#5d5e5e" d="M 303.5,63.5 C 303.833,63.5 304.167,63.5 304.5,63.5C 304.5,85.5 304.5,107.5 304.5,129.5C 304.5,151.167 304.5,172.833 304.5,194.5C 304.5,216.5 304.5,238.5 304.5,260.5C 304.167,260.5 303.833,260.5 303.5,260.5C 303.5,238.833 303.5,217.167 303.5,195.5C 292.833,195.5 282.167,195.5 271.5,195.5C 271.5,217.167 271.5,238.833 271.5,260.5C 260.5,260.5 249.5,260.5 238.5,260.5C 238.5,238.5 238.5,216.5 238.5,194.5C 249.5,194.5 260.5,194.5 271.5,194.5C 282.167,194.5 292.833,194.5 303.5,194.5C 303.5,172.833 303.5,151.167 303.5,129.5C 303.5,107.833 303.5,86.1667 303.5,64.5C 303.5,64.1667 303.5,63.8333 303.5,63.5 Z"/></g>
<g><path style="opacity:1" fill="#444444" d="M 303.5,260.5 C 292.833,260.5 282.167,260.5 271.5,260.5C 271.5,238.833 271.5,217.167 271.5,195.5C 282.167,195.5 292.833,195.5 303.5,195.5C 303.5,217.167 303.5,238.833 303.5,260.5 Z"/></g>
<g><path style="opacity:1" fill="#c4dee3" d="M 368.5,63.5 C 368.833,63.5 369.167,63.5 369.5,63.5C 369.5,85.5 369.5,107.5 369.5,129.5C 369.5,151.167 369.5,172.833 369.5,194.5C 369.5,216.5 369.5,238.5 369.5,260.5C 347.833,260.5 326.167,260.5 304.5,260.5C 304.5,238.5 304.5,216.5 304.5,194.5C 325.833,194.5 347.167,194.5 368.5,194.5C 368.5,172.833 368.5,151.167 368.5,129.5C 368.5,107.5 368.5,85.5 368.5,63.5 Z"/></g>
<g><path style="opacity:0.995" fill="#444444" d="M 369.5,194.5 C 391.167,194.5 412.833,194.5 434.5,194.5C 434.5,216.5 434.5,238.5 434.5,260.5C 412.833,260.5 391.167,260.5 369.5,260.5C 369.5,238.5 369.5,216.5 369.5,194.5 Z"/></g>
<g><path style="opacity:1" fill="#ddecf0" d="M 76.5,218.5 C 86.8333,218.5 97.1667,218.5 107.5,218.5C 107.5,224.5 107.5,230.5 107.5,236.5C 97.1667,236.5 86.8333,236.5 76.5,236.5C 76.5,230.5 76.5,224.5 76.5,218.5 Z"/></g>
<g><path style="opacity:0.855" fill="#c8bc94" d="M 76.5,218.5 C 76.5,218.167 76.5,217.833 76.5,217.5C 86.8333,217.5 97.1667,217.5 107.5,217.5C 107.833,217.5 108.167,217.5 108.5,217.5C 108.5,231.833 108.5,246.167 108.5,260.5C 107.508,253.018 107.175,245.352 107.5,237.5C 97.1667,237.5 86.8333,237.5 76.5,237.5C 76.5,237.167 76.5,236.833 76.5,236.5C 86.8333,236.5 97.1667,236.5 107.5,236.5C 107.5,230.5 107.5,224.5 107.5,218.5C 97.1667,218.5 86.8333,218.5 76.5,218.5 Z"/></g>
<g><path style="opacity:0.981" fill="#fbbe2b" d="M 76.5,237.5 C 86.8333,237.5 97.1667,237.5 107.5,237.5C 107.175,245.352 107.508,253.018 108.5,260.5C 108.5,330.833 108.5,401.167 108.5,471.5C 97.8333,471.5 87.1667,471.5 76.5,471.5C 76.5,393.5 76.5,315.5 76.5,237.5 Z"/></g>
</svg>
